<svg xmlns="http://www.w3.org/2000/svg" viewBox="0 0 38.1 22.8"><defs><style>.a{fill:#f08300;}</style></defs><title>heli</title><path class="a" d="M41.4,5.3H30V5a.3.3,0,0,0-.3-.3H15.5a.3.3,0,0,0-.3.3v.3H3.8a.3.3,0,0,0-.3.3c0,.1.1.4.3.4H15.2v.3a.3.3,0,0,0,.3.3h6.7v.5h.7V6.5h6.7a.3.3,0,0,0,.3-.3h0V5.9H41.3a.3.3,0,0,0,.3-.3c0-.1,0-.3-.2-.3Z" transform="translate(-3.5 -4.7)"/><path class="a" d="M30.5,25.1h0a.7.7,0,0,1,.8.7v1a.7.7,0,0,1-.7.7h-.1a.7.7,0,0,1-.7-.7v-1A.7.7,0,0,1,30.5,25.1Z" transform="translate(-3.5 -4.7)"/><path class="a" d="M25.4,9.9h0V8.6a.8.8,0,0,0-.8-.8H20.5a1,1,0,0,0-.9.8V9.8h5.8Z" transform="translate(-3.5 -4.7)"/><path class="a" d="M18.2,11.4H27a1.6,1.6,0,0,0-1.5-.9H19.7A1.6,1.6,0,0,0,18.2,11.4Z" transform="translate(-3.5 -4.7)"/><path class="a" d="M30.4,19.5h0V15.7A3.9,3.9,0,0,0,26.5,12H18.7a3.8,3.8,0,0,0-3.8,3.7v3.8a5.6,5.6,0,0,0,5.4,5.8h4.6a5.6,5.6,0,0,0,5.6-5.6Zm-11.3,4-.3.2h-.1a4.3,4.3,0,0,1-2.3-2.5c-.1-.2,0-.4.2-.4h0c.2-.1.4,0,.4.2a3.7,3.7,0,0,0,2,2.1C19.1,23.2,19.2,23.3,19.1,23.5Zm2.6-6.8a9.7,9.7,0,0,0-4.9,2V15.8A1.8,1.8,0,0,1,18.7,14h3Zm1.7,0V14.1h3a1.8,1.8,0,0,1,1.8,1.7v2.7a8.6,8.6,0,0,0-4.9-1.8Zm5.4,4.5a4.5,4.5,0,0,1-2.4,2.5h-.1c-.1,0-.3-.1-.3-.2s0-.4.2-.4h0a4.1,4.1,0,0,0,2-2.1c.1-.2.3-.3.4-.2s.2.2.2.4Z" transform="translate(-3.5 -4.7)"/><path class="a" d="M27.6,25.4a8.3,8.3,0,0,1,1.5,1.1v-.8l-.9-.6Z" transform="translate(-3.5 -4.7)"/><path class="a" d="M16,25.6v.8a9.1,9.1,0,0,1,1.6-1.1l-.7-.4Z" transform="translate(-3.5 -4.7)"/><path class="a" d="M14.5,25.1h0a.7.7,0,0,1,.8.7v1a.7.7,0,0,1-.7.7h-.1a.7.7,0,0,1-.7-.7v-1A.7.7,0,0,1,14.5,25.1Z" transform="translate(-3.5 -4.7)"/></svg>