<svg xmlns="http://www.w3.org/2000/svg" viewBox="0 0 22.7 19.2"><defs><style>.a{fill:#f08300;}</style></defs><title>personnel</title><path class="a" d="M16,12.9c1.5,0,2.6-1.7,2.6-3.2A2.7,2.7,0,0,0,16,7a2.6,2.6,0,0,0-2.6,2.7C13.4,11.2,14.5,12.9,16,12.9Z" transform="translate(-11.1 -7)"/><path class="a" d="M29.2,12.9c1.4,0,2.6-1.7,2.6-3.2A2.7,2.7,0,0,0,29.2,7a2.7,2.7,0,0,0-2.7,2.7C26.5,11.2,27.7,12.9,29.2,12.9Z" transform="translate(-11.1 -7)"/><path class="a" d="M19.2,13.4a3.5,3.5,0,0,1,3.4-3.6A3.5,3.5,0,0,1,26,13.4c0,1.9-1.5,4.1-3.4,4.1S19.2,15.4,19.2,13.4Z" transform="translate(-11.1 -7)"/><path class="a" d="M30.4,13.4a3,3,0,0,1-2.6,0l-1,.2a5.4,5.4,0,0,1-1.6,3.5l1,.3v-.7c0-.2,0-.2.2-.2s.2,0,.2.2v.8a6.3,6.3,0,0,1,2.5,2h2.1V16.7c0-.2,0-.2.2-.2s.2,0,.2.2v2.7a3.3,3.3,0,0,0,2.3-2.9C33.9,14.9,32.4,13.6,30.4,13.4Z" transform="translate(-11.1 -7)"/><path class="a" d="M24.6,17.8a4,4,0,0,1-2,.7,4.7,4.7,0,0,1-2-.6c-2.3.4-4.1,2-4.1,4.1A4.1,4.1,0,0,0,19,25.5v-3c0-.3.1-.5.4-.5a.5.5,0,0,1,.4.5v3.3a6.4,6.4,0,0,0,2,.3h2.1l1.8-.2V22.3c0-.3.1-.4.4-.4a.4.4,0,0,1,.4.4v3.2a4,4,0,0,0,2.7-3.6A5,5,0,0,0,24.6,17.8Z" transform="translate(-11.1 -7)"/><path class="a" d="M19.9,17.1a5.5,5.5,0,0,1-1.5-3.5l-1.1-.2a3.1,3.1,0,0,1-1.3.3,2.8,2.8,0,0,1-1.3-.3c-2,.2-3.6,1.5-3.6,3.1a3.3,3.3,0,0,0,2.3,2.8V16.7c0-.2,0-.2.2-.2s.2,0,.2.2v2.7h2.4a5.1,5.1,0,0,1,2.2-1.9v-1a.2.2,0,0,1,.2-.2c.2,0,.2.1.2.2v.8Z" transform="translate(-11.1 -7)"/></svg>