<svg xmlns="http://www.w3.org/2000/svg" viewBox="0 0 38.1 31.3"><defs><style>.a{fill:#f08300;}</style></defs><title>titik_panas</title><path class="a" d="M28.9,9.1c-2.9,2.6-2.2,8.7-2.2,8.7-1-1.9-.7-5.2-1.1-8.3a10.8,10.8,0,0,0-5.8-8.3c3.3,5.6-.8,12.7-.8,12.7-1.4-5.6-4.5-6.3-4.5-6.3,1.9,4.9-1.4,10.6-1.7,17.1S19,32.4,19,32.4a6.3,6.3,0,0,1-1.1-5.8,20.1,20.1,0,0,0,.5-4.2c1.1.8,1.2,4.5,1.2,4.5a12.1,12.1,0,0,0,.7-5.4c-.5-2.6,1.9-4.5,1.9-4.5a9.2,9.2,0,0,0,2,8.4c-.8-2.6,1.2-5.1,1.2-5.1s-.4,2.3,1.2,6.1a5.2,5.2,0,0,1-1,6c10.1-5,6.8-12.2,5-15.3S28.9,9.1,28.9,9.1Z" transform="translate(-3.4 -1.2)"/><path class="a" d="M13.1,15.8a18.8,18.8,0,0,0,.7-5.3c-.8-1.8-2-5.8-.2-9.1A8.6,8.6,0,0,0,9,8c-.2,2.6,0,5.2-.9,6.6s.7-4.9-1.7-6.9A15.3,15.3,0,0,1,5,14.1C3.6,16.6.9,22.4,9,26.3a4.4,4.4,0,0,1-.8-4.8c1.3-3,1.1-4.2,1-4.8s1.6,1.9,1,4.1A7.6,7.6,0,0,0,11.8,14,5.9,5.9,0,0,1,13.1,15.8Z" transform="translate(-3.4 -1.2)"/><path class="a" d="M39.9,14.1a13.9,13.9,0,0,1-1.3-6.4c-2.4,2-1.8,6.9-1.8,6.9s-.6-4-.9-6.6a8.6,8.6,0,0,0-4.6-6.6c2,3.6.3,8.1-.4,9.6a3.3,3.3,0,0,1-.6,1,12.6,12.6,0,0,0,1.3,4.3h.1A4.9,4.9,0,0,1,33.2,14a7.3,7.3,0,0,0,1.6,6.8,4.7,4.7,0,0,1,.9-4.1,11,11,0,0,0,1,4.8,4.2,4.2,0,0,1-.8,4.8C44,22.4,41.3,16.6,39.9,14.1Z" transform="translate(-3.4 -1.2)"/></svg>